<svg width="104" height="67" viewBox="0 0 104 67" fill="none" xmlns="http://www.w3.org/2000/svg">
<rect width="104" height="67" fill="#F5F5F5"/>
<g filter="url(#filter0_f_0_1)">
<rect x="7" y="7" width="90" height="53" fill="#FFF623"/>
<rect x="5.5" y="5.5" width="93" height="56" stroke="black" stroke-width="3"/>
</g>
<path d="M28.9386 30.0352C28.8822 29.5079 28.6448 29.0974 28.2262 28.8036C27.8117 28.5098 27.2724 28.3629 26.6083 28.3629C26.1415 28.3629 25.741 28.4334 25.407 28.5742C25.0729 28.7151 24.8174 28.9062 24.6403 29.1477C24.4632 29.3892 24.3726 29.6649 24.3686 29.9748C24.3686 30.2324 24.427 30.4557 24.5437 30.6449C24.6644 30.834 24.8274 30.995 25.0327 31.1278C25.2379 31.2566 25.4653 31.3653 25.7148 31.4538C25.9644 31.5424 26.2159 31.6168 26.4695 31.6772L27.6286 31.967C28.0954 32.0756 28.5442 32.2225 28.9748 32.4077C29.4094 32.5928 29.7978 32.8262 30.1399 33.108C30.486 33.3897 30.7597 33.7298 30.9609 34.1282C31.1622 34.5266 31.2628 34.9935 31.2628 35.5288C31.2628 36.2532 31.0777 36.8911 30.7074 37.4425C30.3371 37.9898 29.8018 38.4184 29.1016 38.7283C28.4053 39.0342 27.5621 39.1871 26.5721 39.1871C25.6102 39.1871 24.7751 39.0382 24.0668 38.7404C23.3625 38.4426 22.8111 38.0079 22.4126 37.4364C22.0182 36.8649 21.8049 36.1687 21.7727 35.3477H23.9762C24.0084 35.7783 24.1412 36.1365 24.3746 36.4222C24.6081 36.708 24.9119 36.9213 25.2862 37.0621C25.6645 37.203 26.0871 37.2734 26.554 37.2734C27.041 37.2734 27.4676 37.201 27.8338 37.0561C28.2041 36.9072 28.4938 36.7019 28.7031 36.4403C28.9124 36.1747 29.0191 35.8648 29.0231 35.5107C29.0191 35.1887 28.9245 34.9231 28.7393 34.7138C28.5542 34.5005 28.2946 34.3234 27.9606 34.1825C27.6306 34.0376 27.2442 33.9089 26.8015 33.7962L25.3949 33.4339C24.3767 33.1723 23.5717 32.7759 22.9801 32.2447C22.3925 31.7094 22.0987 30.9991 22.0987 30.1136C22.0987 29.3852 22.2959 28.7473 22.6903 28.1999C23.0888 27.6526 23.6301 27.228 24.3143 26.9261C24.9985 26.6203 25.7732 26.4673 26.6385 26.4673C27.5159 26.4673 28.2846 26.6203 28.9446 26.9261C29.6087 27.228 30.1299 27.6486 30.5082 28.1879C30.8865 28.7231 31.0817 29.3389 31.0938 30.0352H28.9386ZM35.8614 39L32.3721 26.6364H34.7808L37.0084 35.7219H37.1231L39.5017 26.6364H41.6931L44.0777 35.728H44.1863L46.414 26.6364H48.8227L45.3334 39H43.1238L40.6487 30.3249H40.5521L38.0709 39H35.8614Z" fill="black"/>
<defs>
<filter id="filter0_f_0_1" x="0" y="0" width="104" height="67" filterUnits="userSpaceOnUse" color-interpolation-filters="sRGB">
<feFlood flood-opacity="0" result="BackgroundImageFix"/>
<feBlend mode="normal" in="SourceGraphic" in2="BackgroundImageFix" result="shape"/>
<feGaussianBlur stdDeviation="2" result="effect1_foregroundBlur_0_1"/>
</filter>
</defs>
</svg>
